<?xml version="1.0" encoding="UTF-8"?><svg xmlns="http://www.w3.org/2000/svg" xmlns:xlink="http://www.w3.org/1999/xlink" width="30" zoomAndPan="magnify" viewBox="0 0 30 30.000001" height="30.000001" preserveAspectRatio="xMidYMid meet" version="1.0"><defs><clipPath id="clip-0"><path d="M 6.214844 0 L 23.628906 0 L 23.628906 28.304688 L 6.214844 28.304688 Z M 6.214844 0 " clip-rule="nonzero"/></clipPath><clipPath id="clip-1"><path d="M 6.726562 7.257812 L 23.417969 7.257812 L 23.417969 23.953125 L 6.726562 23.953125 Z M 6.726562 7.257812 " clip-rule="nonzero"/></clipPath><clipPath id="clip-2"><path d="M 15.070312 23.953125 C 10.46875 23.953125 6.722656 20.207031 6.722656 15.605469 C 6.722656 11 10.464844 7.257812 15.070312 7.257812 C 19.671875 7.257812 23.414062 11.003906 23.414062 15.605469 C 23.414062 20.210938 19.671875 23.953125 15.070312 23.953125 Z M 15.070312 23.953125 " clip-rule="nonzero"/></clipPath><radialGradient gradientTransform="matrix(1, 0, 0, 1, 4.752411, 5.28467)" xmlns:xlink="http://www.w3.org/1999/xlink" gradientUnits="userSpaceOnUse" xlink:type="simple" r="11.923209" xlink:actuate="onLoad" cx="10.133386" id="radial-pattern-0" cy="5.735926" xlink:show="other" fx="10.133386" fy="5.735926"><stop stop-opacity="1" stop-color="rgb(99.884033%, 21.884155%, 21.922302%)" offset="0"/><stop stop-opacity="1" stop-color="rgb(99.650574%, 21.650696%, 21.766663%)" offset="0.0625"/><stop stop-opacity="1" stop-color="rgb(99.421692%, 21.421814%, 21.614075%)" offset="0.121094"/><stop stop-opacity="1" stop-color="rgb(99.206543%, 21.206665%, 21.472168%)" offset="0.175781"/><stop stop-opacity="1" stop-color="rgb(99.009705%, 21.009827%, 21.339417%)" offset="0.226562"/><stop stop-opacity="1" stop-color="rgb(98.75946%, 20.73822%, 21.182251%)" offset="0.273438"/><stop stop-opacity="1" stop-color="rgb(98.474121%, 20.399475%, 21.012878%)" offset="0.316406"/><stop stop-opacity="1" stop-color="rgb(98.210144%, 20.075989%, 20.863342%)" offset="0.335938"/><stop stop-opacity="1" stop-color="rgb(97.947693%, 19.752502%, 20.71228%)" offset="0.355469"/><stop stop-opacity="1" stop-color="rgb(97.685242%, 19.430542%, 20.562744%)" offset="0.375"/><stop stop-opacity="1" stop-color="rgb(97.44873%, 19.139099%, 20.426941%)" offset="0.394531"/><stop stop-opacity="1" stop-color="rgb(97.238159%, 18.881226%, 20.306396%)" offset="0.410156"/><stop stop-opacity="1" stop-color="rgb(97.027588%, 18.621826%, 20.185852%)" offset="0.425781"/><stop stop-opacity="1" stop-color="rgb(96.817017%, 18.363953%, 20.066833%)" offset="0.441406"/><stop stop-opacity="1" stop-color="rgb(96.606445%, 18.106079%, 19.946289%)" offset="0.457031"/><stop stop-opacity="1" stop-color="rgb(96.3974%, 17.84668%, 19.825745%)" offset="0.472656"/><stop stop-opacity="1" stop-color="rgb(96.186829%, 17.588806%, 19.7052%)" offset="0.488281"/><stop stop-opacity="1" stop-color="rgb(96.002197%, 17.362976%, 19.599915%)" offset="0.503906"/><stop stop-opacity="1" stop-color="rgb(95.843506%, 17.169189%, 19.509888%)" offset="0.515625"/><stop stop-opacity="1" stop-color="rgb(95.68634%, 16.975403%, 19.419861%)" offset="0.527344"/><stop stop-opacity="1" stop-color="rgb(95.529175%, 16.781616%, 19.329834%)" offset="0.539062"/><stop stop-opacity="1" stop-color="rgb(95.368958%, 16.584778%, 19.238281%)" offset="0.550781"/><stop stop-opacity="1" stop-color="rgb(95.155334%, 16.313171%, 19.096375%)" offset="0.5625"/><stop stop-opacity="1" stop-color="rgb(94.891357%, 15.9729%, 18.910217%)" offset="0.574219"/><stop stop-opacity="1" stop-color="rgb(94.62738%, 15.631104%, 18.722534%)" offset="0.585938"/><stop stop-opacity="1" stop-color="rgb(94.363403%, 15.290833%, 18.534851%)" offset="0.597656"/><stop stop-opacity="1" stop-color="rgb(94.0979%, 14.950562%, 18.347168%)" offset="0.609375"/><stop stop-opacity="1" stop-color="rgb(93.833923%, 14.608765%, 18.161011%)" offset="0.621094"/><stop stop-opacity="1" stop-color="rgb(93.614197%, 14.324951%, 18.005371%)" offset="0.632812"/><stop stop-opacity="1" stop-color="rgb(93.438721%, 14.097595%, 17.880249%)" offset="0.640625"/><stop stop-opacity="1" stop-color="rgb(93.261719%, 13.870239%, 17.755127%)" offset="0.648438"/><stop stop-opacity="1" stop-color="rgb(93.086243%, 13.642883%, 17.630005%)" offset="0.65625"/><stop stop-opacity="1" stop-color="rgb(92.910767%, 13.415527%, 17.504883%)" offset="0.664062"/><stop stop-opacity="1" stop-color="rgb(92.733765%, 13.188171%, 17.379761%)" offset="0.671875"/><stop stop-opacity="1" stop-color="rgb(92.558289%, 12.960815%, 17.256165%)" offset="0.679688"/><stop stop-opacity="1" stop-color="rgb(92.381287%, 12.733459%, 17.131042%)" offset="0.6875"/><stop stop-opacity="1" stop-color="rgb(92.205811%, 12.506104%, 17.00592%)" offset="0.695312"/><stop stop-opacity="1" stop-color="rgb(92.030334%, 12.278748%, 16.880798%)" offset="0.703125"/><stop stop-opacity="1" stop-color="rgb(91.853333%, 12.051392%, 16.755676%)" offset="0.710938"/><stop stop-opacity="1" stop-color="rgb(91.677856%, 11.824036%, 16.630554%)" offset="0.71875"/><stop stop-opacity="1" stop-color="rgb(91.500854%, 11.59668%, 16.506958%)" offset="0.726562"/><stop stop-opacity="1" stop-color="rgb(91.325378%, 11.369324%, 16.381836%)" offset="0.734375"/><stop stop-opacity="1" stop-color="rgb(91.148376%, 11.141968%, 16.256714%)" offset="0.742188"/><stop stop-opacity="1" stop-color="rgb(90.9729%, 10.914612%, 16.131592%)" offset="0.75"/><stop stop-opacity="1" stop-color="rgb(90.753174%, 10.630798%, 15.975952%)" offset="0.757812"/><stop stop-opacity="1" stop-color="rgb(90.489197%, 10.289001%, 15.788269%)" offset="0.769531"/><stop stop-opacity="1" stop-color="rgb(90.223694%, 9.94873%, 15.600586%)" offset="0.78125"/><stop stop-opacity="1" stop-color="rgb(89.959717%, 9.606934%, 15.412903%)" offset="0.792969"/><stop stop-opacity="1" stop-color="rgb(89.768982%, 9.365845%, 15.283203%)" offset="0.804688"/><stop stop-opacity="1" stop-color="rgb(89.642334%, 9.216309%, 15.206909%)" offset="0.808594"/><stop stop-opacity="1" stop-color="rgb(89.506531%, 9.059143%, 15.129089%)" offset="0.8125"/><stop stop-opacity="1" stop-color="rgb(89.303589%, 8.824158%, 15.010071%)" offset="0.816406"/><stop stop-opacity="1" stop-color="rgb(89.035034%, 8.509827%, 14.854431%)" offset="0.824219"/><stop stop-opacity="1" stop-color="rgb(88.764954%, 8.195496%, 14.697266%)" offset="0.832031"/><stop stop-opacity="1" stop-color="rgb(88.494873%, 7.881165%, 14.5401%)" offset="0.839844"/><stop stop-opacity="1" stop-color="rgb(88.224792%, 7.566833%, 14.382935%)" offset="0.847656"/><stop stop-opacity="1" stop-color="rgb(87.954712%, 7.252502%, 14.225769%)" offset="0.855469"/><stop stop-opacity="1" stop-color="rgb(87.686157%, 6.939697%, 14.068604%)" offset="0.863281"/><stop stop-opacity="1" stop-color="rgb(87.416077%, 6.625366%, 13.911438%)" offset="0.871094"/><stop stop-opacity="1" stop-color="rgb(87.213135%, 6.388855%, 13.793945%)" offset="0.878906"/><stop stop-opacity="1" stop-color="rgb(87.078857%, 6.231689%, 13.716125%)" offset="0.882812"/><stop stop-opacity="1" stop-color="rgb(86.943054%, 6.074524%, 13.63678%)" offset="0.886719"/><stop stop-opacity="1" stop-color="rgb(86.808777%, 5.917358%, 13.55896%)" offset="0.890625"/><stop stop-opacity="1" stop-color="rgb(86.6745%, 5.760193%, 13.479614%)" offset="0.894531"/><stop stop-opacity="1" stop-color="rgb(86.538696%, 5.603027%, 13.401794%)" offset="0.898438"/><stop stop-opacity="1" stop-color="rgb(86.404419%, 5.445862%, 13.322449%)" offset="0.902344"/><stop stop-opacity="1" stop-color="rgb(86.268616%, 5.288696%, 13.244629%)" offset="0.90625"/><stop stop-opacity="1" stop-color="rgb(86.0672%, 5.053711%, 13.12561%)" offset="0.910156"/><stop stop-opacity="1" stop-color="rgb(85.797119%, 4.740906%, 12.968445%)" offset="0.917969"/><stop stop-opacity="1" stop-color="rgb(85.527039%, 4.426575%, 12.811279%)" offset="0.925781"/><stop stop-opacity="1" stop-color="rgb(85.256958%, 4.112244%, 12.65564%)" offset="0.933594"/><stop stop-opacity="1" stop-color="rgb(85.055542%, 3.875732%, 12.538147%)" offset="0.941406"/><stop stop-opacity="1" stop-color="rgb(84.919739%, 3.718567%, 12.458801%)" offset="0.945312"/><stop stop-opacity="1" stop-color="rgb(84.785461%, 3.561401%, 12.380981%)" offset="0.949219"/><stop stop-opacity="1" stop-color="rgb(84.649658%, 3.404236%, 12.301636%)" offset="0.953125"/><stop stop-opacity="1" stop-color="rgb(84.448242%, 3.16925%, 12.184143%)" offset="0.957031"/><stop stop-opacity="1" stop-color="rgb(84.178162%, 2.854919%, 12.026978%)" offset="0.964844"/><stop stop-opacity="1" stop-color="rgb(83.97522%, 2.619934%, 11.909485%)" offset="0.972656"/><stop stop-opacity="1" stop-color="rgb(83.840942%, 2.462769%, 11.830139%)" offset="0.976562"/><stop stop-opacity="1" stop-color="rgb(83.638%, 2.227783%, 11.712646%)" offset="0.980469"/><stop stop-opacity="1" stop-color="rgb(83.436584%, 1.991272%, 11.595154%)" offset="0.988281"/><stop stop-opacity="1" stop-color="rgb(83.233643%, 1.756287%, 11.477661%)" offset="0.992188"/><stop stop-opacity="1" stop-color="rgb(83.099365%, 1.599121%, 11.399841%)" offset="1"/></radialGradient></defs><g clip-path="url(#clip-0)"><path fill="rgb(0%, 29.019165%, 67.83905%)" d="M 20.972656 19.925781 C 20.128906 19.476562 19.144531 19.132812 18.070312 18.902344 L 18.070312 16.589844 C 18.210938 16.679688 18.375 16.734375 18.550781 16.734375 C 19.035156 16.734375 19.429688 16.339844 19.429688 15.855469 L 19.429688 15.144531 C 19.488281 15.019531 19.523438 14.875 19.523438 14.726562 L 19.523438 8.238281 C 19.523438 7.761719 19.183594 7.351562 18.714844 7.257812 L 16.917969 6.898438 C 16.828125 6.792969 16.714844 6.710938 16.589844 6.652344 C 16.734375 6.492188 16.851562 6.332031 16.945312 6.203125 C 17.164062 5.882812 17.347656 5.539062 17.472656 5.207031 C 17.535156 5.070312 17.589844 4.929688 17.632812 4.789062 C 17.800781 4.648438 17.902344 4.433594 17.902344 4.210938 L 17.902344 3.664062 C 17.902344 3.503906 17.851562 3.351562 17.761719 3.222656 L 17.761719 2.453125 C 17.761719 1.097656 16.660156 -0.00390625 15.304688 -0.00390625 L 14.507812 -0.00390625 C 13.152344 -0.00390625 12.050781 1.097656 12.050781 2.453125 L 12.050781 3.222656 C 11.960938 3.351562 11.910156 3.503906 11.910156 3.664062 L 11.910156 4.210938 C 11.910156 4.433594 12.011719 4.648438 12.179688 4.789062 C 12.222656 4.929688 12.277344 5.066406 12.339844 5.207031 C 12.46875 5.539062 12.648438 5.882812 12.871094 6.203125 C 12.960938 6.332031 13.082031 6.492188 13.222656 6.652344 C 13.097656 6.710938 12.988281 6.792969 12.898438 6.898438 L 11.128906 7.253906 C 10.660156 7.351562 10.324219 7.761719 10.324219 8.238281 L 10.324219 14.726562 C 10.324219 14.875 10.355469 15.019531 10.414062 15.144531 L 10.414062 15.855469 C 10.414062 16.339844 10.808594 16.734375 11.292969 16.734375 C 11.46875 16.734375 11.636719 16.679688 11.773438 16.589844 L 11.773438 18.90625 C 10.699219 19.132812 9.714844 19.476562 8.871094 19.925781 C 7.15625 20.839844 6.214844 22.089844 6.214844 23.445312 C 6.214844 24.796875 7.15625 26.046875 8.871094 26.960938 C 10.496094 27.828125 12.644531 28.304688 14.921875 28.304688 C 17.199219 28.304688 19.347656 27.828125 20.972656 26.960938 C 22.6875 26.046875 23.628906 24.796875 23.628906 23.445312 C 23.628906 22.089844 22.6875 20.839844 20.972656 19.925781 Z M 15.292969 8.0625 C 15.289062 8.019531 15.300781 7.976562 15.332031 7.941406 C 15.347656 7.921875 15.367188 7.910156 15.390625 7.898438 L 15.390625 7.507812 C 15.390625 7.433594 15.445312 7.367188 15.519531 7.351562 C 15.644531 7.332031 15.773438 7.285156 15.902344 7.21875 C 15.953125 7.191406 16.011719 7.191406 16.058594 7.222656 C 16.105469 7.25 16.132812 7.300781 16.132812 7.355469 L 16.132812 8.296875 C 16.132812 8.332031 16.125 8.363281 16.101562 8.390625 L 15.660156 8.976562 C 15.628906 9.019531 15.582031 9.039062 15.535156 9.039062 C 15.519531 9.039062 15.507812 9.039062 15.492188 9.035156 C 15.429688 9.019531 15.382812 8.964844 15.378906 8.898438 Z M 12.984375 4.410156 L 12.976562 4.34375 L 12.824219 4.242188 C 12.78125 4.214844 12.753906 4.164062 12.753906 4.113281 L 12.753906 3.851562 C 12.753906 3.765625 12.824219 3.695312 12.910156 3.695312 L 12.972656 3.695312 L 12.972656 3.414062 C 12.972656 3.355469 13.007812 3.300781 13.0625 3.273438 C 13.277344 3.164062 13.707031 2.984375 14.152344 2.984375 C 14.507812 2.984375 14.804688 3.101562 15.03125 3.335938 C 15.3125 3.625 15.636719 3.773438 15.992188 3.773438 C 16.195312 3.773438 16.40625 3.726562 16.617188 3.632812 C 16.664062 3.609375 16.722656 3.613281 16.765625 3.644531 C 16.789062 3.65625 16.804688 3.675781 16.816406 3.695312 L 16.902344 3.695312 C 16.992188 3.695312 17.0625 3.765625 17.0625 3.851562 L 17.0625 4.113281 C 17.0625 4.164062 17.035156 4.214844 16.988281 4.242188 L 16.835938 4.34375 L 16.828125 4.410156 C 16.777344 4.785156 16.566406 5.273438 16.261719 5.710938 C 15.878906 6.269531 15.515625 6.519531 15.328125 6.519531 L 14.484375 6.519531 C 14.296875 6.519531 13.9375 6.269531 13.550781 5.710938 C 13.246094 5.273438 13.035156 4.785156 12.984375 4.410156 Z M 14.480469 7.941406 C 14.511719 7.976562 14.527344 8.019531 14.519531 8.0625 L 14.433594 8.898438 C 14.429688 8.964844 14.382812 9.019531 14.320312 9.035156 C 14.308594 9.039062 14.292969 9.039062 14.277344 9.039062 C 14.230469 9.039062 14.183594 9.019531 14.152344 8.976562 L 13.710938 8.390625 C 13.691406 8.363281 13.679688 8.332031 13.679688 8.296875 L 13.679688 7.355469 C 13.679688 7.300781 13.707031 7.25 13.753906 7.222656 C 13.800781 7.191406 13.859375 7.191406 13.910156 7.214844 C 14.039062 7.285156 14.167969 7.332031 14.292969 7.351562 C 14.367188 7.367188 14.421875 7.433594 14.421875 7.507812 L 14.421875 7.898438 C 14.445312 7.910156 14.464844 7.921875 14.480469 7.941406 Z M 14.921875 26.285156 C 11.214844 26.285156 8.078125 24.714844 8.078125 22.863281 C 8.078125 21.570312 9.597656 20.417969 11.773438 19.835938 L 11.773438 23.304688 C 11.773438 24.175781 12.476562 24.878906 13.347656 24.878906 C 14.21875 24.878906 14.921875 24.175781 14.921875 23.304688 C 14.921875 24.175781 15.628906 24.878906 16.496094 24.878906 C 17.367188 24.878906 18.070312 24.175781 18.070312 23.304688 L 18.070312 19.835938 C 20.246094 20.417969 21.765625 21.570312 21.765625 22.863281 C 21.765625 24.714844 18.632812 26.285156 14.921875 26.285156 Z M 14.921875 26.285156 " fill-opacity="1" fill-rule="nonzero"/></g><g clip-path="url(#clip-1)"><g clip-path="url(#clip-2)"><path fill="url(#radial-pattern-0)" d="M 6.726562 7.257812 L 6.726562 23.953125 L 23.414062 23.953125 L 23.414062 7.257812 Z M 6.726562 7.257812 " fill-rule="nonzero"/></g></g><path fill="rgb(100%, 100%, 100%)" d="M 19.195312 11.78125 C 18.753906 11.296875 18.351562 10.972656 17.867188 11.414062 L 10.667969 18.054688 C 10.183594 18.5 10.484375 18.925781 10.929688 19.40625 C 11.375 19.886719 11.792969 20.246094 12.277344 19.800781 L 19.476562 13.160156 C 19.960938 12.71875 19.640625 12.261719 19.195312 11.78125 Z M 19.195312 11.78125 " fill-opacity="1" fill-rule="nonzero"/><path fill="rgb(100%, 100%, 100%)" d="M 10.941406 11.78125 C 11.386719 11.296875 11.789062 10.972656 12.269531 11.414062 L 19.472656 18.054688 C 19.953125 18.5 19.652344 18.925781 19.207031 19.40625 C 18.765625 19.886719 18.34375 20.246094 17.863281 19.800781 L 10.660156 13.164062 C 10.179688 12.71875 10.496094 12.261719 10.941406 11.78125 Z M 10.941406 11.78125 " fill-opacity="1" fill-rule="nonzero"/></svg>