<?xml version="1.0" encoding="UTF-8"?><svg xmlns="http://www.w3.org/2000/svg" xmlns:xlink="http://www.w3.org/1999/xlink" width="30" zoomAndPan="magnify" viewBox="0 0 30 30.000001" height="30.000001" preserveAspectRatio="xMidYMid meet" version="1.0"><defs><clipPath id="clip-0"><path d="M 6.074219 0 L 24.21875 0 L 24.21875 29.03125 L 6.074219 29.03125 Z M 6.074219 0 " clip-rule="nonzero"/></clipPath><clipPath id="clip-1"><path d="M 6.851562 7.292969 L 22.820312 7.292969 L 22.820312 23.261719 L 6.851562 23.261719 Z M 6.851562 7.292969 " clip-rule="nonzero"/></clipPath><clipPath id="clip-2"><path d="M 14.832031 23.261719 C 10.429688 23.261719 6.847656 19.679688 6.847656 15.277344 C 6.847656 10.875 10.429688 7.296875 14.832031 7.296875 C 19.234375 7.296875 22.816406 10.875 22.816406 15.28125 C 22.816406 19.683594 19.234375 23.261719 14.832031 23.261719 Z M 14.832031 23.261719 " clip-rule="nonzero"/></clipPath><radialGradient gradientTransform="matrix(1, 0, 0, 1, 4.965226, 5.40676)" xmlns:xlink="http://www.w3.org/1999/xlink" gradientUnits="userSpaceOnUse" xlink:type="simple" r="11.404809" xlink:actuate="onLoad" cx="9.692804" id="radial-pattern-0" cy="5.486538" xlink:show="other" fx="9.692804" fy="5.486538"><stop stop-opacity="1" stop-color="rgb(99.884033%, 21.884155%, 21.922302%)" offset="0"/><stop stop-opacity="1" stop-color="rgb(99.650574%, 21.650696%, 21.766663%)" offset="0.0625"/><stop stop-opacity="1" stop-color="rgb(99.421692%, 21.421814%, 21.614075%)" offset="0.121094"/><stop stop-opacity="1" stop-color="rgb(99.206543%, 21.206665%, 21.472168%)" offset="0.175781"/><stop stop-opacity="1" stop-color="rgb(99.009705%, 21.009827%, 21.339417%)" offset="0.226562"/><stop stop-opacity="1" stop-color="rgb(98.75946%, 20.73822%, 21.182251%)" offset="0.273438"/><stop stop-opacity="1" stop-color="rgb(98.474121%, 20.399475%, 21.012878%)" offset="0.316406"/><stop stop-opacity="1" stop-color="rgb(98.210144%, 20.075989%, 20.863342%)" offset="0.335938"/><stop stop-opacity="1" stop-color="rgb(97.947693%, 19.752502%, 20.71228%)" offset="0.355469"/><stop stop-opacity="1" stop-color="rgb(97.685242%, 19.430542%, 20.562744%)" offset="0.375"/><stop stop-opacity="1" stop-color="rgb(97.44873%, 19.139099%, 20.426941%)" offset="0.394531"/><stop stop-opacity="1" stop-color="rgb(97.238159%, 18.881226%, 20.306396%)" offset="0.410156"/><stop stop-opacity="1" stop-color="rgb(97.027588%, 18.621826%, 20.185852%)" offset="0.425781"/><stop stop-opacity="1" stop-color="rgb(96.817017%, 18.363953%, 20.066833%)" offset="0.441406"/><stop stop-opacity="1" stop-color="rgb(96.606445%, 18.106079%, 19.946289%)" offset="0.457031"/><stop stop-opacity="1" stop-color="rgb(96.3974%, 17.84668%, 19.825745%)" offset="0.472656"/><stop stop-opacity="1" stop-color="rgb(96.186829%, 17.588806%, 19.7052%)" offset="0.488281"/><stop stop-opacity="1" stop-color="rgb(96.002197%, 17.362976%, 19.599915%)" offset="0.503906"/><stop stop-opacity="1" stop-color="rgb(95.843506%, 17.169189%, 19.509888%)" offset="0.515625"/><stop stop-opacity="1" stop-color="rgb(95.68634%, 16.975403%, 19.419861%)" offset="0.527344"/><stop stop-opacity="1" stop-color="rgb(95.529175%, 16.781616%, 19.329834%)" offset="0.539062"/><stop stop-opacity="1" stop-color="rgb(95.368958%, 16.584778%, 19.238281%)" offset="0.550781"/><stop stop-opacity="1" stop-color="rgb(95.155334%, 16.313171%, 19.096375%)" offset="0.5625"/><stop stop-opacity="1" stop-color="rgb(94.891357%, 15.9729%, 18.910217%)" offset="0.574219"/><stop stop-opacity="1" stop-color="rgb(94.62738%, 15.631104%, 18.722534%)" offset="0.585938"/><stop stop-opacity="1" stop-color="rgb(94.363403%, 15.290833%, 18.534851%)" offset="0.597656"/><stop stop-opacity="1" stop-color="rgb(94.0979%, 14.950562%, 18.347168%)" offset="0.609375"/><stop stop-opacity="1" stop-color="rgb(93.833923%, 14.608765%, 18.161011%)" offset="0.621094"/><stop stop-opacity="1" stop-color="rgb(93.614197%, 14.324951%, 18.005371%)" offset="0.632812"/><stop stop-opacity="1" stop-color="rgb(93.438721%, 14.097595%, 17.880249%)" offset="0.640625"/><stop stop-opacity="1" stop-color="rgb(93.261719%, 13.870239%, 17.755127%)" offset="0.648438"/><stop stop-opacity="1" stop-color="rgb(93.086243%, 13.642883%, 17.630005%)" offset="0.65625"/><stop stop-opacity="1" stop-color="rgb(92.910767%, 13.415527%, 17.504883%)" offset="0.664062"/><stop stop-opacity="1" stop-color="rgb(92.733765%, 13.188171%, 17.379761%)" offset="0.671875"/><stop stop-opacity="1" stop-color="rgb(92.558289%, 12.960815%, 17.256165%)" offset="0.679688"/><stop stop-opacity="1" stop-color="rgb(92.381287%, 12.733459%, 17.131042%)" offset="0.6875"/><stop stop-opacity="1" stop-color="rgb(92.205811%, 12.506104%, 17.00592%)" offset="0.695312"/><stop stop-opacity="1" stop-color="rgb(92.030334%, 12.278748%, 16.880798%)" offset="0.703125"/><stop stop-opacity="1" stop-color="rgb(91.853333%, 12.051392%, 16.755676%)" offset="0.710938"/><stop stop-opacity="1" stop-color="rgb(91.677856%, 11.824036%, 16.630554%)" offset="0.71875"/><stop stop-opacity="1" stop-color="rgb(91.500854%, 11.59668%, 16.506958%)" offset="0.726562"/><stop stop-opacity="1" stop-color="rgb(91.325378%, 11.369324%, 16.381836%)" offset="0.734375"/><stop stop-opacity="1" stop-color="rgb(91.148376%, 11.141968%, 16.256714%)" offset="0.742188"/><stop stop-opacity="1" stop-color="rgb(90.9729%, 10.914612%, 16.131592%)" offset="0.75"/><stop stop-opacity="1" stop-color="rgb(90.753174%, 10.630798%, 15.975952%)" offset="0.757812"/><stop stop-opacity="1" stop-color="rgb(90.489197%, 10.289001%, 15.788269%)" offset="0.769531"/><stop stop-opacity="1" stop-color="rgb(90.223694%, 9.94873%, 15.600586%)" offset="0.78125"/><stop stop-opacity="1" stop-color="rgb(89.959717%, 9.606934%, 15.412903%)" offset="0.792969"/><stop stop-opacity="1" stop-color="rgb(89.768982%, 9.365845%, 15.283203%)" offset="0.804688"/><stop stop-opacity="1" stop-color="rgb(89.642334%, 9.216309%, 15.206909%)" offset="0.808594"/><stop stop-opacity="1" stop-color="rgb(89.506531%, 9.059143%, 15.129089%)" offset="0.8125"/><stop stop-opacity="1" stop-color="rgb(89.303589%, 8.824158%, 15.010071%)" offset="0.816406"/><stop stop-opacity="1" stop-color="rgb(89.035034%, 8.509827%, 14.854431%)" offset="0.824219"/><stop stop-opacity="1" stop-color="rgb(88.764954%, 8.195496%, 14.697266%)" offset="0.832031"/><stop stop-opacity="1" stop-color="rgb(88.494873%, 7.881165%, 14.5401%)" offset="0.839844"/><stop stop-opacity="1" stop-color="rgb(88.224792%, 7.566833%, 14.382935%)" offset="0.847656"/><stop stop-opacity="1" stop-color="rgb(87.954712%, 7.252502%, 14.225769%)" offset="0.855469"/><stop stop-opacity="1" stop-color="rgb(87.686157%, 6.939697%, 14.068604%)" offset="0.863281"/><stop stop-opacity="1" stop-color="rgb(87.416077%, 6.625366%, 13.911438%)" offset="0.871094"/><stop stop-opacity="1" stop-color="rgb(87.213135%, 6.388855%, 13.793945%)" offset="0.878906"/><stop stop-opacity="1" stop-color="rgb(87.078857%, 6.231689%, 13.716125%)" offset="0.882812"/><stop stop-opacity="1" stop-color="rgb(86.943054%, 6.074524%, 13.63678%)" offset="0.886719"/><stop stop-opacity="1" stop-color="rgb(86.808777%, 5.917358%, 13.55896%)" offset="0.890625"/><stop stop-opacity="1" stop-color="rgb(86.6745%, 5.760193%, 13.479614%)" offset="0.894531"/><stop stop-opacity="1" stop-color="rgb(86.538696%, 5.603027%, 13.401794%)" offset="0.898438"/><stop stop-opacity="1" stop-color="rgb(86.404419%, 5.445862%, 13.322449%)" offset="0.902344"/><stop stop-opacity="1" stop-color="rgb(86.268616%, 5.288696%, 13.244629%)" offset="0.90625"/><stop stop-opacity="1" stop-color="rgb(86.0672%, 5.053711%, 13.12561%)" offset="0.910156"/><stop stop-opacity="1" stop-color="rgb(85.797119%, 4.740906%, 12.968445%)" offset="0.917969"/><stop stop-opacity="1" stop-color="rgb(85.527039%, 4.426575%, 12.811279%)" offset="0.925781"/><stop stop-opacity="1" stop-color="rgb(85.256958%, 4.112244%, 12.65564%)" offset="0.933594"/><stop stop-opacity="1" stop-color="rgb(85.055542%, 3.875732%, 12.538147%)" offset="0.941406"/><stop stop-opacity="1" stop-color="rgb(84.919739%, 3.718567%, 12.458801%)" offset="0.945312"/><stop stop-opacity="1" stop-color="rgb(84.785461%, 3.561401%, 12.380981%)" offset="0.949219"/><stop stop-opacity="1" stop-color="rgb(84.649658%, 3.404236%, 12.301636%)" offset="0.953125"/><stop stop-opacity="1" stop-color="rgb(84.448242%, 3.16925%, 12.184143%)" offset="0.957031"/><stop stop-opacity="1" stop-color="rgb(84.178162%, 2.854919%, 12.026978%)" offset="0.964844"/><stop stop-opacity="1" stop-color="rgb(83.97522%, 2.619934%, 11.909485%)" offset="0.972656"/><stop stop-opacity="1" stop-color="rgb(83.840942%, 2.462769%, 11.830139%)" offset="0.976562"/><stop stop-opacity="1" stop-color="rgb(83.638%, 2.227783%, 11.712646%)" offset="0.980469"/><stop stop-opacity="1" stop-color="rgb(83.436584%, 1.991272%, 11.595154%)" offset="0.988281"/><stop stop-opacity="1" stop-color="rgb(83.233643%, 1.756287%, 11.477661%)" offset="0.992188"/><stop stop-opacity="1" stop-color="rgb(83.099365%, 1.599121%, 11.399841%)" offset="1"/></radialGradient></defs><g clip-path="url(#clip-0)"><path fill="rgb(34.899902%, 18.818665%, 18.818665%)" d="M 21.449219 20.4375 C 20.570312 19.976562 19.542969 19.621094 18.425781 19.390625 L 18.425781 17.015625 C 18.570312 17.109375 18.742188 17.164062 18.925781 17.164062 C 19.429688 17.164062 19.839844 16.757812 19.839844 16.261719 L 19.839844 15.535156 C 19.902344 15.402344 19.9375 15.257812 19.9375 15.101562 L 19.9375 8.449219 C 19.9375 7.960938 19.585938 7.539062 19.097656 7.441406 L 17.222656 7.074219 C 17.128906 6.96875 17.011719 6.882812 16.882812 6.820312 C 17.03125 6.660156 17.15625 6.496094 17.25 6.359375 C 17.480469 6.035156 17.671875 5.679688 17.804688 5.339844 C 17.867188 5.199219 17.921875 5.054688 17.96875 4.914062 C 18.144531 4.765625 18.25 4.546875 18.25 4.320312 L 18.25 3.757812 C 18.25 3.59375 18.199219 3.4375 18.105469 3.304688 L 18.105469 2.515625 C 18.105469 1.125 16.957031 -0.00390625 15.542969 -0.00390625 L 14.714844 -0.00390625 C 13.300781 -0.00390625 12.152344 1.125 12.152344 2.515625 L 12.152344 3.304688 C 12.058594 3.4375 12.007812 3.59375 12.007812 3.757812 L 12.007812 4.320312 C 12.007812 4.546875 12.113281 4.765625 12.289062 4.914062 C 12.335938 5.054688 12.390625 5.199219 12.453125 5.339844 C 12.585938 5.679688 12.777344 6.035156 13.007812 6.359375 C 13.101562 6.496094 13.226562 6.660156 13.375 6.820312 C 13.246094 6.882812 13.128906 6.96875 13.035156 7.074219 L 11.191406 7.441406 C 10.703125 7.539062 10.355469 7.960938 10.355469 8.449219 L 10.355469 15.101562 C 10.355469 15.257812 10.386719 15.402344 10.449219 15.535156 L 10.449219 16.261719 C 10.449219 16.757812 10.859375 17.164062 11.363281 17.164062 C 11.546875 17.164062 11.71875 17.109375 11.863281 17.015625 L 11.863281 19.390625 C 10.746094 19.621094 9.71875 19.976562 8.839844 20.4375 C 7.054688 21.375 6.074219 22.65625 6.074219 24.046875 C 6.074219 25.433594 7.054688 26.714844 8.839844 27.652344 C 10.535156 28.542969 12.773438 29.03125 15.144531 29.03125 C 17.519531 29.03125 19.757812 28.542969 21.449219 27.652344 C 23.234375 26.714844 24.21875 25.433594 24.21875 24.046875 C 24.21875 22.65625 23.234375 21.375 21.449219 20.4375 Z M 15.53125 8.269531 C 15.527344 8.222656 15.539062 8.179688 15.570312 8.144531 C 15.589844 8.125 15.609375 8.113281 15.632812 8.101562 L 15.632812 7.699219 C 15.632812 7.621094 15.691406 7.554688 15.769531 7.542969 C 15.898438 7.519531 16.03125 7.472656 16.167969 7.402344 C 16.21875 7.375 16.277344 7.378906 16.328125 7.40625 C 16.378906 7.4375 16.40625 7.488281 16.40625 7.542969 L 16.40625 8.507812 C 16.40625 8.542969 16.394531 8.578125 16.375 8.605469 L 15.914062 9.207031 C 15.882812 9.25 15.832031 9.273438 15.78125 9.273438 C 15.769531 9.273438 15.753906 9.269531 15.738281 9.265625 C 15.675781 9.25 15.625 9.191406 15.621094 9.128906 Z M 13.128906 4.519531 L 13.117188 4.453125 L 12.960938 4.351562 C 12.914062 4.324219 12.882812 4.273438 12.882812 4.21875 L 12.882812 3.953125 C 12.882812 3.863281 12.957031 3.789062 13.046875 3.789062 L 13.113281 3.789062 L 13.113281 3.503906 C 13.113281 3.441406 13.152344 3.386719 13.207031 3.359375 C 13.433594 3.246094 13.878906 3.0625 14.34375 3.0625 C 14.714844 3.0625 15.023438 3.183594 15.257812 3.421875 C 15.550781 3.71875 15.890625 3.871094 16.261719 3.871094 C 16.472656 3.871094 16.691406 3.820312 16.910156 3.726562 C 16.960938 3.703125 17.019531 3.707031 17.066406 3.734375 C 17.089844 3.75 17.105469 3.769531 17.121094 3.789062 L 17.210938 3.789062 C 17.300781 3.789062 17.375 3.863281 17.375 3.953125 L 17.375 4.21875 C 17.375 4.273438 17.34375 4.324219 17.296875 4.351562 L 17.140625 4.453125 L 17.128906 4.519531 C 17.078125 4.90625 16.859375 5.40625 16.542969 5.859375 C 16.140625 6.429688 15.765625 6.6875 15.570312 6.6875 L 14.6875 6.6875 C 14.492188 6.6875 14.117188 6.429688 13.714844 5.859375 C 13.398438 5.40625 13.179688 4.90625 13.128906 4.519531 Z M 14.6875 8.144531 C 14.71875 8.179688 14.734375 8.222656 14.726562 8.269531 L 14.636719 9.128906 C 14.628906 9.195312 14.582031 9.25 14.519531 9.265625 C 14.503906 9.269531 14.488281 9.273438 14.472656 9.273438 C 14.421875 9.273438 14.375 9.25 14.34375 9.207031 L 13.882812 8.605469 C 13.859375 8.578125 13.847656 8.542969 13.847656 8.507812 L 13.847656 7.542969 C 13.851562 7.488281 13.878906 7.4375 13.929688 7.40625 C 13.976562 7.375 14.039062 7.375 14.089844 7.402344 C 14.226562 7.472656 14.359375 7.519531 14.488281 7.542969 C 14.566406 7.554688 14.625 7.621094 14.625 7.699219 L 14.625 8.101562 C 14.648438 8.113281 14.667969 8.125 14.6875 8.144531 Z M 15.144531 26.957031 C 11.28125 26.957031 8.015625 25.351562 8.015625 23.449219 C 8.015625 22.125 9.597656 20.941406 11.863281 20.347656 L 11.863281 23.902344 C 11.863281 24.796875 12.597656 25.519531 13.503906 25.519531 C 14.410156 25.519531 15.144531 24.796875 15.144531 23.902344 C 15.144531 24.796875 15.878906 25.519531 16.785156 25.519531 C 17.691406 25.519531 18.425781 24.796875 18.425781 23.902344 L 18.425781 20.347656 C 20.691406 20.941406 22.273438 22.125 22.273438 23.449219 C 22.273438 25.351562 19.007812 26.957031 15.144531 26.957031 Z M 15.144531 26.957031 " fill-opacity="1" fill-rule="nonzero"/></g><g clip-path="url(#clip-1)"><g clip-path="url(#clip-2)"><path fill="url(#radial-pattern-0)" d="M 6.851562 7.296875 L 6.851562 23.261719 L 22.816406 23.261719 L 22.816406 7.296875 Z M 6.851562 7.296875 " fill-rule="nonzero"/></g></g><path fill="rgb(100%, 100%, 100%)" d="M 18.78125 11.621094 C 18.355469 11.160156 17.972656 10.847656 17.511719 11.269531 L 10.621094 17.621094 C 10.160156 18.046875 10.449219 18.453125 10.875 18.914062 C 11.296875 19.375 11.699219 19.71875 12.160156 19.292969 L 19.050781 12.941406 C 19.511719 12.515625 19.207031 12.082031 18.78125 11.621094 Z M 18.78125 11.621094 " fill-opacity="1" fill-rule="nonzero"/><path fill="rgb(100%, 100%, 100%)" d="M 10.886719 11.621094 C 11.308594 11.160156 11.695312 10.847656 12.15625 11.269531 L 19.042969 17.621094 C 19.503906 18.046875 19.21875 18.453125 18.792969 18.914062 C 18.367188 19.375 17.964844 19.71875 17.503906 19.292969 L 10.617188 12.941406 C 10.15625 12.515625 10.460938 12.082031 10.886719 11.621094 Z M 10.886719 11.621094 " fill-opacity="1" fill-rule="nonzero"/></svg>