<?xml version="1.0" encoding="UTF-8"?><svg xmlns="http://www.w3.org/2000/svg" xmlns:xlink="http://www.w3.org/1999/xlink" width="30" zoomAndPan="magnify" viewBox="0 0 30 30.000001" height="30.000001" preserveAspectRatio="xMidYMid meet" version="1.0"><defs><clipPath id="clip-0"><path d="M 7.960938 7.476562 L 21.75 7.476562 L 21.75 21.265625 L 7.960938 21.265625 Z M 7.960938 7.476562 " clip-rule="nonzero"/></clipPath><clipPath id="clip-1"><path d="M 14.851562 21.265625 C 11.050781 21.265625 7.957031 18.171875 7.957031 14.371094 C 7.957031 10.570312 11.050781 7.476562 14.851562 7.476562 C 18.65625 7.476562 21.746094 10.570312 21.746094 14.371094 C 21.746094 18.175781 18.652344 21.265625 14.851562 21.265625 Z M 14.851562 21.265625 " clip-rule="nonzero"/></clipPath><radialGradient gradientTransform="matrix(1, 0, 0, 1, 6.32948, 5.845611)" xmlns:xlink="http://www.w3.org/1999/xlink" gradientUnits="userSpaceOnUse" xlink:type="simple" r="9.849607" xlink:actuate="onLoad" cx="8.371058" id="radial-pattern-0" cy="4.738374" xlink:show="other" fx="8.371058" fy="4.738374"><stop stop-opacity="1" stop-color="rgb(99.884033%, 21.884155%, 21.922302%)" offset="0"/><stop stop-opacity="1" stop-color="rgb(99.650574%, 21.650696%, 21.766663%)" offset="0.0625"/><stop stop-opacity="1" stop-color="rgb(99.421692%, 21.421814%, 21.614075%)" offset="0.121094"/><stop stop-opacity="1" stop-color="rgb(99.206543%, 21.206665%, 21.472168%)" offset="0.175781"/><stop stop-opacity="1" stop-color="rgb(99.009705%, 21.009827%, 21.339417%)" offset="0.226562"/><stop stop-opacity="1" stop-color="rgb(98.75946%, 20.73822%, 21.182251%)" offset="0.273438"/><stop stop-opacity="1" stop-color="rgb(98.474121%, 20.399475%, 21.012878%)" offset="0.316406"/><stop stop-opacity="1" stop-color="rgb(98.210144%, 20.075989%, 20.863342%)" offset="0.335938"/><stop stop-opacity="1" stop-color="rgb(97.947693%, 19.752502%, 20.71228%)" offset="0.355469"/><stop stop-opacity="1" stop-color="rgb(97.685242%, 19.430542%, 20.562744%)" offset="0.375"/><stop stop-opacity="1" stop-color="rgb(97.44873%, 19.139099%, 20.426941%)" offset="0.394531"/><stop stop-opacity="1" stop-color="rgb(97.238159%, 18.881226%, 20.306396%)" offset="0.410156"/><stop stop-opacity="1" stop-color="rgb(97.027588%, 18.621826%, 20.185852%)" offset="0.425781"/><stop stop-opacity="1" stop-color="rgb(96.817017%, 18.363953%, 20.066833%)" offset="0.441406"/><stop stop-opacity="1" stop-color="rgb(96.606445%, 18.106079%, 19.946289%)" offset="0.457031"/><stop stop-opacity="1" stop-color="rgb(96.3974%, 17.84668%, 19.825745%)" offset="0.472656"/><stop stop-opacity="1" stop-color="rgb(96.186829%, 17.588806%, 19.7052%)" offset="0.488281"/><stop stop-opacity="1" stop-color="rgb(96.002197%, 17.362976%, 19.599915%)" offset="0.503906"/><stop stop-opacity="1" stop-color="rgb(95.843506%, 17.169189%, 19.509888%)" offset="0.515625"/><stop stop-opacity="1" stop-color="rgb(95.68634%, 16.975403%, 19.419861%)" offset="0.527344"/><stop stop-opacity="1" stop-color="rgb(95.529175%, 16.781616%, 19.329834%)" offset="0.539062"/><stop stop-opacity="1" stop-color="rgb(95.368958%, 16.584778%, 19.238281%)" offset="0.550781"/><stop stop-opacity="1" stop-color="rgb(95.155334%, 16.313171%, 19.096375%)" offset="0.5625"/><stop stop-opacity="1" stop-color="rgb(94.891357%, 15.9729%, 18.910217%)" offset="0.574219"/><stop stop-opacity="1" stop-color="rgb(94.62738%, 15.631104%, 18.722534%)" offset="0.585938"/><stop stop-opacity="1" stop-color="rgb(94.363403%, 15.290833%, 18.534851%)" offset="0.597656"/><stop stop-opacity="1" stop-color="rgb(94.0979%, 14.950562%, 18.347168%)" offset="0.609375"/><stop stop-opacity="1" stop-color="rgb(93.833923%, 14.608765%, 18.161011%)" offset="0.621094"/><stop stop-opacity="1" stop-color="rgb(93.614197%, 14.324951%, 18.005371%)" offset="0.632812"/><stop stop-opacity="1" stop-color="rgb(93.438721%, 14.097595%, 17.880249%)" offset="0.640625"/><stop stop-opacity="1" stop-color="rgb(93.261719%, 13.870239%, 17.755127%)" offset="0.648438"/><stop stop-opacity="1" stop-color="rgb(93.086243%, 13.642883%, 17.630005%)" offset="0.65625"/><stop stop-opacity="1" stop-color="rgb(92.910767%, 13.415527%, 17.504883%)" offset="0.664062"/><stop stop-opacity="1" stop-color="rgb(92.733765%, 13.188171%, 17.379761%)" offset="0.671875"/><stop stop-opacity="1" stop-color="rgb(92.558289%, 12.960815%, 17.256165%)" offset="0.679688"/><stop stop-opacity="1" stop-color="rgb(92.381287%, 12.733459%, 17.131042%)" offset="0.6875"/><stop stop-opacity="1" stop-color="rgb(92.205811%, 12.506104%, 17.00592%)" offset="0.695312"/><stop stop-opacity="1" stop-color="rgb(92.030334%, 12.278748%, 16.880798%)" offset="0.703125"/><stop stop-opacity="1" stop-color="rgb(91.853333%, 12.051392%, 16.755676%)" offset="0.710938"/><stop stop-opacity="1" stop-color="rgb(91.677856%, 11.824036%, 16.630554%)" offset="0.71875"/><stop stop-opacity="1" stop-color="rgb(91.500854%, 11.59668%, 16.506958%)" offset="0.726562"/><stop stop-opacity="1" stop-color="rgb(91.325378%, 11.369324%, 16.381836%)" offset="0.734375"/><stop stop-opacity="1" stop-color="rgb(91.148376%, 11.141968%, 16.256714%)" offset="0.742188"/><stop stop-opacity="1" stop-color="rgb(90.9729%, 10.914612%, 16.131592%)" offset="0.75"/><stop stop-opacity="1" stop-color="rgb(90.753174%, 10.630798%, 15.975952%)" offset="0.757812"/><stop stop-opacity="1" stop-color="rgb(90.489197%, 10.289001%, 15.788269%)" offset="0.769531"/><stop stop-opacity="1" stop-color="rgb(90.223694%, 9.94873%, 15.600586%)" offset="0.78125"/><stop stop-opacity="1" stop-color="rgb(89.959717%, 9.606934%, 15.412903%)" offset="0.792969"/><stop stop-opacity="1" stop-color="rgb(89.768982%, 9.365845%, 15.283203%)" offset="0.804688"/><stop stop-opacity="1" stop-color="rgb(89.642334%, 9.216309%, 15.206909%)" offset="0.808594"/><stop stop-opacity="1" stop-color="rgb(89.506531%, 9.059143%, 15.129089%)" offset="0.8125"/><stop stop-opacity="1" stop-color="rgb(89.303589%, 8.824158%, 15.010071%)" offset="0.816406"/><stop stop-opacity="1" stop-color="rgb(89.035034%, 8.509827%, 14.854431%)" offset="0.824219"/><stop stop-opacity="1" stop-color="rgb(88.764954%, 8.195496%, 14.697266%)" offset="0.832031"/><stop stop-opacity="1" stop-color="rgb(88.494873%, 7.881165%, 14.5401%)" offset="0.839844"/><stop stop-opacity="1" stop-color="rgb(88.224792%, 7.566833%, 14.382935%)" offset="0.847656"/><stop stop-opacity="1" stop-color="rgb(87.954712%, 7.252502%, 14.225769%)" offset="0.855469"/><stop stop-opacity="1" stop-color="rgb(87.686157%, 6.939697%, 14.068604%)" offset="0.863281"/><stop stop-opacity="1" stop-color="rgb(87.416077%, 6.625366%, 13.911438%)" offset="0.871094"/><stop stop-opacity="1" stop-color="rgb(87.213135%, 6.388855%, 13.793945%)" offset="0.878906"/><stop stop-opacity="1" stop-color="rgb(87.078857%, 6.231689%, 13.716125%)" offset="0.882812"/><stop stop-opacity="1" stop-color="rgb(86.943054%, 6.074524%, 13.63678%)" offset="0.886719"/><stop stop-opacity="1" stop-color="rgb(86.808777%, 5.917358%, 13.55896%)" offset="0.890625"/><stop stop-opacity="1" stop-color="rgb(86.6745%, 5.760193%, 13.479614%)" offset="0.894531"/><stop stop-opacity="1" stop-color="rgb(86.538696%, 5.603027%, 13.401794%)" offset="0.898438"/><stop stop-opacity="1" stop-color="rgb(86.404419%, 5.445862%, 13.322449%)" offset="0.902344"/><stop stop-opacity="1" stop-color="rgb(86.268616%, 5.288696%, 13.244629%)" offset="0.90625"/><stop stop-opacity="1" stop-color="rgb(86.0672%, 5.053711%, 13.12561%)" offset="0.910156"/><stop stop-opacity="1" stop-color="rgb(85.797119%, 4.740906%, 12.968445%)" offset="0.917969"/><stop stop-opacity="1" stop-color="rgb(85.527039%, 4.426575%, 12.811279%)" offset="0.925781"/><stop stop-opacity="1" stop-color="rgb(85.256958%, 4.112244%, 12.65564%)" offset="0.933594"/><stop stop-opacity="1" stop-color="rgb(85.055542%, 3.875732%, 12.538147%)" offset="0.941406"/><stop stop-opacity="1" stop-color="rgb(84.919739%, 3.718567%, 12.458801%)" offset="0.945312"/><stop stop-opacity="1" stop-color="rgb(84.785461%, 3.561401%, 12.380981%)" offset="0.949219"/><stop stop-opacity="1" stop-color="rgb(84.649658%, 3.404236%, 12.301636%)" offset="0.953125"/><stop stop-opacity="1" stop-color="rgb(84.448242%, 3.16925%, 12.184143%)" offset="0.957031"/><stop stop-opacity="1" stop-color="rgb(84.178162%, 2.854919%, 12.026978%)" offset="0.964844"/><stop stop-opacity="1" stop-color="rgb(83.97522%, 2.619934%, 11.909485%)" offset="0.972656"/><stop stop-opacity="1" stop-color="rgb(83.840942%, 2.462769%, 11.830139%)" offset="0.976562"/><stop stop-opacity="1" stop-color="rgb(83.638%, 2.227783%, 11.712646%)" offset="0.980469"/><stop stop-opacity="1" stop-color="rgb(83.436584%, 1.991272%, 11.595154%)" offset="0.988281"/><stop stop-opacity="1" stop-color="rgb(83.233643%, 1.756287%, 11.477661%)" offset="0.992188"/><stop stop-opacity="1" stop-color="rgb(83.099365%, 1.599121%, 11.399841%)" offset="1"/></radialGradient></defs><path fill="rgb(98.039246%, 76.078796%, 31.369019%)" d="M 21.386719 11.597656 C 21.386719 11.597656 18.832031 8.226562 17.484375 6.980469 C 16.992188 6.523438 15.882812 5.96875 14.847656 5.96875 L 6.679688 5.96875 C 5.566406 5.96875 4.296875 8.90625 2.890625 10.507812 C 2.554688 10.890625 2.34375 12.558594 2.34375 12.558594 L 1.980469 13.871094 L 1.980469 14.84375 C 1.980469 14.84375 2.011719 16.019531 1.78125 16.441406 C 1.546875 16.859375 1.5625 19.203125 1.980469 19.203125 L 26.804688 19.203125 C 28.371094 19.203125 28.375 18.148438 28.0625 16.882812 C 27.65625 15.238281 26.328125 13.5625 25.460938 13.1875 C 24.144531 12.613281 21.386719 11.597656 21.386719 11.597656 " fill-opacity="1" fill-rule="nonzero"/><path fill="rgb(1.568604%, 1.959229%, 1.959229%)" d="M 21.386719 11.597656 L 21.507812 11.507812 C 21.507812 11.507812 20.867188 10.664062 20.058594 9.660156 C 19.65625 9.160156 19.207031 8.621094 18.777344 8.128906 C 18.34375 7.632812 17.929688 7.1875 17.585938 6.867188 C 17.320312 6.625 16.910156 6.367188 16.425781 6.164062 C 15.945312 5.964844 15.390625 5.820312 14.847656 5.820312 L 6.679688 5.820312 C 6.503906 5.820312 6.339844 5.878906 6.179688 5.96875 C 5.898438 6.132812 5.632812 6.40625 5.359375 6.742188 C 4.953125 7.25 4.535156 7.90625 4.105469 8.570312 C 3.671875 9.230469 3.230469 9.894531 2.777344 10.40625 C 2.722656 10.472656 2.675781 10.550781 2.632812 10.644531 C 2.5625 10.800781 2.5 10.996094 2.445312 11.199219 C 2.285156 11.816406 2.195312 12.535156 2.195312 12.539062 L 2.34375 12.558594 L 2.199219 12.519531 L 1.835938 13.832031 C 1.832031 13.84375 1.832031 13.859375 1.832031 13.871094 L 1.832031 14.855469 C 1.832031 14.871094 1.832031 14.917969 1.832031 14.980469 C 1.832031 15.140625 1.828125 15.417969 1.800781 15.691406 C 1.785156 15.832031 1.765625 15.964844 1.742188 16.085938 C 1.714844 16.203125 1.683594 16.304688 1.648438 16.367188 C 1.613281 16.433594 1.589844 16.507812 1.570312 16.59375 C 1.539062 16.726562 1.515625 16.890625 1.5 17.070312 C 1.488281 17.253906 1.480469 17.453125 1.480469 17.65625 C 1.480469 18.039062 1.503906 18.429688 1.566406 18.738281 C 1.597656 18.894531 1.632812 19.027344 1.6875 19.132812 C 1.71875 19.1875 1.75 19.238281 1.796875 19.277344 C 1.820312 19.300781 1.847656 19.316406 1.878906 19.332031 C 1.910156 19.34375 1.945312 19.351562 1.980469 19.351562 L 26.804688 19.351562 C 27.085938 19.351562 27.328125 19.320312 27.53125 19.253906 C 27.679688 19.207031 27.8125 19.140625 27.925781 19.054688 C 28.089844 18.929688 28.207031 18.761719 28.277344 18.578125 C 28.347656 18.390625 28.375 18.183594 28.375 17.96875 C 28.375 17.621094 28.304688 17.242188 28.207031 16.847656 C 28 16 27.558594 15.15625 27.054688 14.46875 C 26.804688 14.128906 26.539062 13.824219 26.277344 13.582031 C 26.015625 13.339844 25.761719 13.15625 25.519531 13.050781 C 24.859375 12.761719 23.839844 12.363281 22.984375 12.039062 C 22.128906 11.710938 21.441406 11.457031 21.4375 11.457031 L 21.386719 11.597656 L 21.507812 11.507812 L 21.386719 11.597656 L 21.335938 11.738281 C 21.335938 11.738281 21.378906 11.753906 21.457031 11.785156 C 21.730469 11.882812 22.429688 12.144531 23.203125 12.441406 C 23.976562 12.742188 24.828125 13.074219 25.402344 13.324219 C 25.59375 13.410156 25.828125 13.574219 26.074219 13.800781 C 26.441406 14.144531 26.828125 14.625 27.160156 15.167969 C 27.492188 15.710938 27.769531 16.320312 27.917969 16.921875 C 28.011719 17.304688 28.074219 17.664062 28.074219 17.96875 C 28.074219 18.136719 28.054688 18.292969 28.011719 18.421875 C 27.980469 18.519531 27.9375 18.605469 27.878906 18.679688 C 27.792969 18.792969 27.671875 18.882812 27.5 18.949219 C 27.324219 19.011719 27.097656 19.050781 26.804688 19.050781 L 1.980469 19.050781 L 1.980469 19.085938 L 1.996094 19.054688 L 1.980469 19.050781 L 1.980469 19.085938 L 1.996094 19.054688 L 1.988281 19.066406 L 1.996094 19.054688 L 1.988281 19.066406 L 1.996094 19.054688 L 1.992188 19.050781 C 1.980469 19.039062 1.96875 19.019531 1.953125 18.992188 C 1.929688 18.941406 1.902344 18.867188 1.882812 18.773438 C 1.847656 18.632812 1.820312 18.457031 1.804688 18.261719 C 1.789062 18.070312 1.78125 17.863281 1.78125 17.65625 C 1.78125 17.394531 1.792969 17.140625 1.816406 16.933594 C 1.832031 16.828125 1.84375 16.734375 1.863281 16.664062 C 1.878906 16.589844 1.898438 16.535156 1.910156 16.511719 C 1.96875 16.410156 2.007812 16.285156 2.035156 16.148438 C 2.078125 15.945312 2.101562 15.71875 2.117188 15.507812 C 2.128906 15.296875 2.132812 15.105469 2.132812 14.980469 C 2.132812 14.894531 2.132812 14.839844 2.128906 14.835938 L 1.980469 14.84375 L 2.132812 14.84375 L 2.132812 13.894531 L 2.488281 12.597656 L 2.492188 12.578125 C 2.492188 12.578125 2.492188 12.570312 2.496094 12.558594 C 2.507812 12.46875 2.5625 12.054688 2.65625 11.621094 C 2.703125 11.402344 2.757812 11.183594 2.820312 11 C 2.847656 10.90625 2.882812 10.824219 2.914062 10.753906 C 2.945312 10.6875 2.976562 10.636719 3.003906 10.605469 C 3.363281 10.195312 3.707031 9.707031 4.042969 9.207031 C 4.546875 8.453125 5.027344 7.664062 5.480469 7.074219 C 5.707031 6.78125 5.925781 6.535156 6.132812 6.367188 C 6.234375 6.285156 6.332031 6.222656 6.421875 6.179688 C 6.515625 6.140625 6.597656 6.121094 6.679688 6.121094 L 14.847656 6.121094 C 15.339844 6.121094 15.859375 6.253906 16.3125 6.441406 C 16.765625 6.632812 17.15625 6.878906 17.382812 7.089844 C 17.710938 7.394531 18.125 7.835938 18.550781 8.324219 C 19.191406 9.058594 19.871094 9.902344 20.390625 10.558594 C 20.648438 10.886719 20.871094 11.167969 21.023438 11.371094 C 21.101562 11.472656 21.164062 11.550781 21.203125 11.605469 C 21.246094 11.660156 21.269531 11.6875 21.269531 11.6875 C 21.285156 11.710938 21.308594 11.730469 21.335938 11.738281 L 21.386719 11.597656 " fill-opacity="1" fill-rule="nonzero"/><path fill="rgb(96.469116%, 56.858826%, 6.269836%)" d="M 1.691406 16.757812 C 1.582031 18.121094 1.628906 19.207031 1.980469 19.253906 L 26.804688 19.253906 C 27.804688 19.253906 28.589844 18.953125 28.03125 16.757812 L 1.691406 16.757812 " fill-opacity="1" fill-rule="nonzero"/><path fill="rgb(1.568604%, 1.959229%, 1.959229%)" d="M 1.691406 16.757812 L 1.542969 16.742188 C 1.507812 17.164062 1.488281 17.554688 1.488281 17.902344 C 1.488281 18.300781 1.511719 18.636719 1.574219 18.894531 C 1.601562 19.023438 1.640625 19.132812 1.699219 19.222656 C 1.726562 19.265625 1.761719 19.308594 1.808594 19.339844 C 1.851562 19.371094 1.90625 19.394531 1.960938 19.402344 L 26.804688 19.402344 C 27 19.402344 27.195312 19.390625 27.378906 19.355469 C 27.515625 19.328125 27.648438 19.289062 27.769531 19.222656 C 27.949219 19.128906 28.105469 18.980469 28.207031 18.773438 C 28.3125 18.570312 28.367188 18.3125 28.367188 17.992188 C 28.367188 17.648438 28.304688 17.234375 28.175781 16.71875 C 28.160156 16.652344 28.097656 16.605469 28.03125 16.605469 L 1.691406 16.605469 C 1.613281 16.605469 1.546875 16.664062 1.542969 16.742188 L 1.691406 16.757812 L 1.691406 16.90625 L 28.03125 16.90625 L 28.03125 16.757812 L 27.882812 16.792969 C 28.011719 17.289062 28.066406 17.683594 28.066406 17.992188 C 28.066406 18.246094 28.027344 18.441406 27.964844 18.585938 C 27.917969 18.695312 27.859375 18.777344 27.789062 18.84375 C 27.683594 18.945312 27.542969 19.007812 27.375 19.050781 C 27.210938 19.089844 27.015625 19.101562 26.804688 19.101562 L 1.980469 19.101562 L 1.980469 19.253906 L 2 19.105469 C 1.996094 19.105469 1.992188 19.101562 1.984375 19.097656 C 1.972656 19.089844 1.941406 19.054688 1.917969 18.992188 C 1.878906 18.902344 1.84375 18.753906 1.824219 18.570312 C 1.800781 18.382812 1.789062 18.15625 1.789062 17.902344 C 1.789062 17.566406 1.808594 17.179688 1.839844 16.765625 L 1.691406 16.757812 L 1.691406 16.90625 L 1.691406 16.757812 " fill-opacity="1" fill-rule="nonzero"/><path fill="rgb(82.749939%, 82.348633%, 82.348633%)" d="M 13.871094 13.992188 C 13.871094 14.132812 13.746094 14.25 13.589844 14.25 L 12.144531 14.25 C 11.992188 14.25 11.867188 14.132812 11.867188 13.992188 C 11.867188 13.847656 11.992188 13.730469 12.144531 13.730469 L 13.589844 13.730469 C 13.746094 13.730469 13.871094 13.847656 13.871094 13.992188 " fill-opacity="1" fill-rule="nonzero"/><path fill="rgb(1.568604%, 1.959229%, 1.959229%)" d="M 13.871094 13.992188 L 13.722656 13.992188 C 13.722656 14.019531 13.710938 14.042969 13.6875 14.0625 C 13.664062 14.085938 13.632812 14.097656 13.589844 14.097656 L 12.144531 14.097656 C 12.105469 14.097656 12.074219 14.085938 12.050781 14.0625 C 12.027344 14.042969 12.015625 14.019531 12.015625 13.992188 C 12.015625 13.964844 12.027344 13.941406 12.050781 13.917969 C 12.074219 13.898438 12.105469 13.882812 12.144531 13.882812 L 13.589844 13.882812 C 13.632812 13.882812 13.664062 13.898438 13.6875 13.917969 C 13.710938 13.941406 13.722656 13.964844 13.722656 13.992188 L 14.023438 13.992188 C 14.023438 13.875 13.96875 13.769531 13.890625 13.699219 C 13.8125 13.625 13.707031 13.582031 13.589844 13.582031 L 12.144531 13.582031 C 12.03125 13.582031 11.925781 13.625 11.847656 13.699219 C 11.769531 13.769531 11.714844 13.875 11.714844 13.992188 C 11.714844 14.105469 11.769531 14.210938 11.847656 14.285156 C 11.925781 14.355469 12.03125 14.398438 12.144531 14.398438 L 13.589844 14.398438 C 13.707031 14.398438 13.8125 14.355469 13.890625 14.285156 C 13.96875 14.210938 14.023438 14.105469 14.023438 13.992188 L 13.871094 13.992188 " fill-opacity="1" fill-rule="nonzero"/><path fill="rgb(23.919678%, 30.198669%, 34.118652%)" d="M 12.828125 6.9375 L 15.703125 6.9375 C 16.003906 6.9375 16.785156 7.320312 17.097656 7.625 C 17.578125 8.09375 19.5625 11 20.179688 11.523438 C 20.511719 11.804688 19.730469 12.875 19.0625 12.875 L 13.515625 12.875 C 12.375 12.875 12.066406 12.4375 12.066406 11.675781 L 12.066406 7.636719 C 12.066406 7.222656 12.542969 6.9375 12.828125 6.9375 " fill-opacity="1" fill-rule="nonzero"/><path fill="rgb(1.568604%, 1.959229%, 1.959229%)" d="M 12.828125 6.9375 L 12.828125 7.089844 L 15.703125 7.089844 C 15.722656 7.089844 15.757812 7.09375 15.804688 7.101562 C 15.878906 7.117188 15.980469 7.152344 16.089844 7.195312 C 16.25 7.257812 16.433594 7.347656 16.597656 7.445312 C 16.761719 7.542969 16.90625 7.644531 16.996094 7.734375 C 17.046875 7.785156 17.128906 7.878906 17.226562 8 C 17.578125 8.433594 18.152344 9.222656 18.703125 9.960938 C 18.980469 10.332031 19.253906 10.6875 19.492188 10.984375 C 19.609375 11.128906 19.71875 11.261719 19.820312 11.371094 C 19.917969 11.484375 20.003906 11.570312 20.082031 11.636719 C 20.089844 11.644531 20.09375 11.648438 20.097656 11.664062 C 20.105469 11.671875 20.109375 11.691406 20.109375 11.714844 C 20.109375 11.78125 20.078125 11.886719 20.019531 12 C 19.925781 12.171875 19.769531 12.359375 19.59375 12.496094 C 19.503906 12.566406 19.410156 12.625 19.320312 12.664062 C 19.230469 12.703125 19.140625 12.722656 19.0625 12.722656 L 13.515625 12.722656 C 13.238281 12.722656 13.019531 12.695312 12.847656 12.648438 C 12.71875 12.613281 12.617188 12.566406 12.539062 12.507812 C 12.421875 12.425781 12.34375 12.324219 12.292969 12.1875 C 12.242188 12.050781 12.21875 11.878906 12.21875 11.675781 L 12.21875 7.636719 C 12.21875 7.5625 12.238281 7.492188 12.277344 7.429688 C 12.332031 7.332031 12.429688 7.242188 12.535156 7.179688 C 12.589844 7.152344 12.644531 7.128906 12.695312 7.113281 C 12.746094 7.097656 12.792969 7.089844 12.828125 7.089844 L 12.828125 6.789062 C 12.730469 6.789062 12.632812 6.8125 12.535156 6.851562 C 12.386719 6.90625 12.238281 7.003906 12.121094 7.132812 C 12.0625 7.199219 12.011719 7.273438 11.976562 7.359375 C 11.9375 7.441406 11.917969 7.535156 11.917969 7.636719 L 11.917969 11.675781 C 11.917969 11.878906 11.9375 12.0625 11.988281 12.230469 C 12.03125 12.355469 12.089844 12.472656 12.171875 12.574219 C 12.292969 12.726562 12.46875 12.839844 12.691406 12.914062 C 12.914062 12.988281 13.183594 13.023438 13.515625 13.023438 L 19.0625 13.023438 C 19.234375 13.023438 19.402344 12.96875 19.558594 12.882812 C 19.789062 12.753906 19.992188 12.558594 20.148438 12.351562 C 20.226562 12.25 20.289062 12.140625 20.335938 12.035156 C 20.378906 11.929688 20.40625 11.824219 20.410156 11.714844 C 20.410156 11.660156 20.402344 11.605469 20.378906 11.550781 C 20.359375 11.496094 20.324219 11.445312 20.277344 11.40625 C 20.210938 11.351562 20.113281 11.253906 20 11.125 C 19.804688 10.902344 19.558594 10.589844 19.292969 10.242188 C 18.894531 9.722656 18.457031 9.121094 18.074219 8.613281 C 17.886719 8.359375 17.710938 8.128906 17.5625 7.9375 C 17.488281 7.84375 17.421875 7.761719 17.359375 7.691406 C 17.300781 7.621094 17.25 7.5625 17.203125 7.519531 C 17.113281 7.429688 17 7.347656 16.871094 7.261719 C 16.679688 7.140625 16.457031 7.023438 16.25 6.9375 C 16.148438 6.894531 16.046875 6.859375 15.957031 6.832031 C 15.863281 6.804688 15.78125 6.789062 15.703125 6.789062 L 12.828125 6.789062 L 12.828125 6.9375 " fill-opacity="1" fill-rule="nonzero"/><path fill="rgb(23.919678%, 30.198669%, 34.118652%)" d="M 9.808594 6.976562 L 6.839844 6.976562 C 6.140625 6.976562 5.203125 9.113281 4.316406 10.207031 C 3.671875 11.003906 4.300781 12.367188 4.957031 12.367188 C 6.351562 12.367188 7.375 12.535156 9.117188 12.609375 C 10.234375 12.652344 10.550781 12.386719 10.550781 11.644531 L 10.550781 7.660156 C 10.550781 7.253906 10.085938 6.976562 9.808594 6.976562 " fill-opacity="1" fill-rule="nonzero"/><path fill="rgb(1.568604%, 1.959229%, 1.959229%)" d="M 9.808594 6.976562 L 9.808594 6.828125 L 6.839844 6.828125 C 6.710938 6.828125 6.59375 6.875 6.484375 6.945312 C 6.292969 7.070312 6.113281 7.269531 5.925781 7.515625 C 5.648438 7.882812 5.359375 8.355469 5.070312 8.828125 C 4.777344 9.296875 4.484375 9.765625 4.199219 10.113281 C 3.984375 10.378906 3.894531 10.703125 3.894531 11.015625 C 3.894531 11.386719 4.015625 11.75 4.203125 12.03125 C 4.296875 12.167969 4.40625 12.289062 4.535156 12.375 C 4.660156 12.464844 4.804688 12.519531 4.957031 12.519531 C 5.648438 12.519531 6.25 12.558594 6.894531 12.609375 C 7.542969 12.660156 8.238281 12.722656 9.109375 12.757812 C 9.191406 12.761719 9.269531 12.761719 9.34375 12.761719 C 9.585938 12.761719 9.789062 12.746094 9.960938 12.703125 C 10.089844 12.675781 10.203125 12.628906 10.300781 12.570312 C 10.449219 12.476562 10.558594 12.34375 10.617188 12.1875 C 10.679688 12.027344 10.703125 11.847656 10.703125 11.644531 L 10.703125 7.660156 C 10.703125 7.527344 10.664062 7.410156 10.605469 7.308594 C 10.515625 7.152344 10.382812 7.039062 10.238281 6.957031 C 10.167969 6.914062 10.097656 6.882812 10.023438 6.859375 C 9.949219 6.839844 9.878906 6.828125 9.808594 6.828125 L 9.808594 7.125 C 9.851562 7.125 9.917969 7.140625 9.988281 7.167969 C 10.089844 7.207031 10.199219 7.277344 10.277344 7.367188 C 10.316406 7.410156 10.347656 7.457031 10.371094 7.507812 C 10.390625 7.554688 10.402344 7.605469 10.402344 7.660156 L 10.402344 11.644531 C 10.402344 11.804688 10.386719 11.9375 10.351562 12.039062 C 10.328125 12.117188 10.292969 12.175781 10.25 12.226562 C 10.183594 12.300781 10.089844 12.355469 9.941406 12.398438 C 9.796875 12.441406 9.597656 12.460938 9.34375 12.460938 C 9.273438 12.460938 9.203125 12.460938 9.121094 12.457031 C 8.253906 12.421875 7.566406 12.363281 6.917969 12.3125 C 6.269531 12.261719 5.660156 12.21875 4.957031 12.21875 C 4.878906 12.21875 4.792969 12.191406 4.703125 12.128906 C 4.574219 12.039062 4.441406 11.875 4.347656 11.675781 C 4.253906 11.476562 4.195312 11.242188 4.195312 11.015625 C 4.195312 10.757812 4.265625 10.507812 4.433594 10.304688 C 4.664062 10.019531 4.890625 9.679688 5.113281 9.320312 C 5.449219 8.789062 5.78125 8.222656 6.089844 7.796875 C 6.242188 7.585938 6.390625 7.410156 6.523438 7.292969 C 6.589844 7.234375 6.648438 7.191406 6.703125 7.164062 C 6.757812 7.136719 6.800781 7.125 6.839844 7.125 L 9.808594 7.125 L 9.808594 6.976562 " fill-opacity="1" fill-rule="nonzero"/><path fill="rgb(77.249146%, 76.858521%, 77.249146%)" d="M 20.855469 22.515625 C 19.113281 22.515625 17.695312 21.097656 17.695312 19.351562 C 17.695312 17.609375 19.113281 16.1875 20.855469 16.1875 C 22.601562 16.1875 24.019531 17.609375 24.019531 19.351562 C 24.019531 21.097656 22.601562 22.515625 20.855469 22.515625 " fill-opacity="1" fill-rule="nonzero"/><path fill="rgb(1.568604%, 1.959229%, 1.959229%)" d="M 20.855469 22.515625 L 20.855469 22.367188 C 20.027344 22.367188 19.273438 22.03125 18.726562 21.484375 C 18.183594 20.9375 17.84375 20.183594 17.84375 19.351562 C 17.84375 18.523438 18.183594 17.769531 18.726562 17.222656 C 19.273438 16.675781 20.027344 16.339844 20.855469 16.339844 C 21.6875 16.339844 22.441406 16.675781 22.988281 17.222656 C 23.53125 17.769531 23.871094 18.523438 23.871094 19.351562 C 23.871094 20.183594 23.53125 20.9375 22.988281 21.484375 C 22.441406 22.03125 21.6875 22.367188 20.855469 22.367188 L 20.855469 22.667969 C 22.683594 22.667969 24.171875 21.179688 24.171875 19.351562 C 24.171875 17.523438 22.683594 16.039062 20.855469 16.039062 C 19.03125 16.039062 17.542969 17.523438 17.542969 19.351562 C 17.542969 21.179688 19.027344 22.667969 20.855469 22.667969 L 20.855469 22.515625 " fill-opacity="1" fill-rule="nonzero"/><path fill="rgb(15.689087%, 14.118958%, 17.248535%)" d="M 20.855469 17.398438 C 19.78125 17.398438 18.902344 18.273438 18.902344 19.351562 C 18.902344 20.429688 19.78125 21.308594 20.855469 21.308594 C 21.9375 21.308594 22.8125 20.429688 22.8125 19.351562 C 22.8125 18.273438 21.9375 17.398438 20.855469 17.398438 Z M 20.855469 22.917969 C 18.890625 22.917969 17.292969 21.316406 17.292969 19.351562 C 17.292969 17.386719 18.890625 15.789062 20.855469 15.789062 C 22.824219 15.789062 24.421875 17.386719 24.421875 19.351562 C 24.421875 21.316406 22.824219 22.917969 20.855469 22.917969 " fill-opacity="1" fill-rule="nonzero"/><path fill="rgb(1.568604%, 1.959229%, 1.959229%)" d="M 20.855469 17.398438 L 20.855469 17.246094 C 19.695312 17.246094 18.753906 18.191406 18.75 19.351562 C 18.753906 20.515625 19.695312 21.457031 20.855469 21.457031 C 22.019531 21.457031 22.960938 20.515625 22.960938 19.351562 C 22.960938 18.191406 22.019531 17.246094 20.855469 17.246094 L 20.855469 17.546875 C 21.355469 17.546875 21.804688 17.75 22.132812 18.078125 C 22.460938 18.40625 22.660156 18.855469 22.660156 19.351562 C 22.660156 19.851562 22.460938 20.300781 22.132812 20.628906 C 21.804688 20.957031 21.355469 21.15625 20.855469 21.15625 C 20.359375 21.15625 19.910156 20.957031 19.582031 20.628906 C 19.253906 20.300781 19.050781 19.851562 19.050781 19.351562 C 19.050781 18.855469 19.253906 18.40625 19.582031 18.078125 C 19.910156 17.75 20.359375 17.546875 20.855469 17.546875 Z M 20.855469 22.917969 L 20.855469 22.765625 C 19.917969 22.765625 19.0625 22.382812 18.445312 21.765625 C 17.828125 21.148438 17.445312 20.292969 17.445312 19.351562 C 17.445312 18.410156 17.828125 17.558594 18.445312 16.941406 C 19.0625 16.320312 19.917969 15.941406 20.855469 15.941406 C 21.800781 15.941406 22.652344 16.320312 23.269531 16.941406 C 23.886719 17.558594 24.269531 18.410156 24.269531 19.351562 C 24.269531 20.292969 23.886719 21.148438 23.269531 21.765625 C 22.652344 22.382812 21.800781 22.765625 20.855469 22.765625 L 20.855469 23.066406 C 22.90625 23.066406 24.570312 21.402344 24.570312 19.351562 C 24.570312 17.304688 22.90625 15.640625 20.855469 15.640625 C 18.808594 15.640625 17.144531 17.304688 17.144531 19.351562 C 17.144531 21.402344 18.808594 23.066406 20.855469 23.066406 L 20.855469 22.917969 " fill-opacity="1" fill-rule="nonzero"/><path fill="rgb(77.249146%, 76.858521%, 77.249146%)" d="M 7.621094 22.515625 C 5.878906 22.515625 4.457031 21.097656 4.457031 19.351562 C 4.457031 17.609375 5.878906 16.1875 7.621094 16.1875 C 9.367188 16.1875 10.785156 17.609375 10.785156 19.351562 C 10.785156 21.097656 9.367188 22.515625 7.621094 22.515625 " fill-opacity="1" fill-rule="nonzero"/><path fill="rgb(1.568604%, 1.959229%, 1.959229%)" d="M 7.621094 22.515625 L 7.621094 22.367188 C 6.792969 22.367188 6.039062 22.03125 5.492188 21.484375 C 4.945312 20.9375 4.609375 20.183594 4.609375 19.351562 C 4.609375 18.523438 4.945312 17.769531 5.492188 17.222656 C 6.039062 16.675781 6.792969 16.339844 7.621094 16.339844 C 8.453125 16.339844 9.207031 16.675781 9.753906 17.222656 C 10.296875 17.769531 10.636719 18.523438 10.636719 19.351562 C 10.636719 20.183594 10.296875 20.9375 9.753906 21.484375 C 9.207031 22.03125 8.453125 22.367188 7.621094 22.367188 L 7.621094 22.667969 C 9.449219 22.667969 10.9375 21.179688 10.9375 19.351562 C 10.9375 17.523438 9.449219 16.039062 7.621094 16.039062 C 5.792969 16.039062 4.308594 17.523438 4.308594 19.351562 C 4.308594 21.179688 5.792969 22.667969 7.621094 22.667969 L 7.621094 22.515625 " fill-opacity="1" fill-rule="nonzero"/><path fill="rgb(15.689087%, 14.118958%, 17.248535%)" d="M 7.621094 17.398438 C 6.542969 17.398438 5.667969 18.273438 5.667969 19.351562 C 5.667969 20.429688 6.542969 21.308594 7.621094 21.308594 C 8.699219 21.308594 9.578125 20.429688 9.578125 19.351562 C 9.578125 18.273438 8.699219 17.398438 7.621094 17.398438 Z M 7.621094 22.917969 C 5.65625 22.917969 4.058594 21.316406 4.058594 19.351562 C 4.058594 17.386719 5.65625 15.789062 7.621094 15.789062 C 9.585938 15.789062 11.1875 17.386719 11.1875 19.351562 C 11.1875 21.316406 9.585938 22.917969 7.621094 22.917969 " fill-opacity="1" fill-rule="nonzero"/><path fill="rgb(1.568604%, 1.959229%, 1.959229%)" d="M 7.621094 17.398438 L 7.621094 17.246094 C 6.460938 17.246094 5.515625 18.191406 5.515625 19.351562 C 5.515625 20.515625 6.460938 21.457031 7.621094 21.457031 C 8.785156 21.457031 9.726562 20.515625 9.726562 19.351562 C 9.726562 18.191406 8.785156 17.246094 7.621094 17.246094 L 7.621094 17.546875 C 8.121094 17.546875 8.570312 17.75 8.898438 18.078125 C 9.226562 18.40625 9.425781 18.855469 9.425781 19.351562 C 9.425781 19.851562 9.226562 20.300781 8.898438 20.628906 C 8.570312 20.957031 8.121094 21.15625 7.621094 21.15625 C 7.125 21.15625 6.675781 20.957031 6.347656 20.628906 C 6.019531 20.300781 5.816406 19.851562 5.816406 19.351562 C 5.816406 18.855469 6.019531 18.40625 6.347656 18.078125 C 6.675781 17.75 7.125 17.546875 7.621094 17.546875 Z M 7.621094 22.917969 L 7.621094 22.765625 C 6.679688 22.765625 5.828125 22.382812 5.210938 21.765625 C 4.589844 21.148438 4.207031 20.292969 4.207031 19.351562 C 4.207031 18.410156 4.589844 17.558594 5.210938 16.941406 C 5.828125 16.320312 6.679688 15.941406 7.621094 15.941406 C 8.5625 15.941406 9.417969 16.320312 10.035156 16.941406 C 10.652344 17.558594 11.035156 18.410156 11.035156 19.351562 C 11.035156 20.292969 10.652344 21.148438 10.035156 21.765625 C 9.417969 22.382812 8.5625 22.765625 7.621094 22.765625 L 7.621094 23.066406 C 9.671875 23.066406 11.335938 21.402344 11.335938 19.351562 C 11.335938 17.304688 9.671875 15.640625 7.621094 15.640625 C 5.574219 15.640625 3.910156 17.304688 3.910156 19.351562 C 3.910156 21.402344 5.574219 23.066406 7.621094 23.066406 L 7.621094 22.917969 " fill-opacity="1" fill-rule="nonzero"/><path fill="rgb(94.119263%, 27.059937%, 13.729858%)" d="M 2.699219 16.183594 L 1.78125 16.441406 C 1.78125 16.441406 1.820312 15.3125 2.039062 14.300781 C 2.28125 14.113281 2.375 14.269531 2.628906 14.613281 C 2.882812 14.960938 2.699219 16.183594 2.699219 16.183594 " fill-opacity="1" fill-rule="nonzero"/><path fill="rgb(1.568604%, 1.959229%, 1.959229%)" d="M 2.699219 16.183594 L 2.660156 16.039062 L 1.738281 16.296875 L 1.78125 16.441406 L 1.929688 16.445312 C 1.929688 16.445312 1.929688 16.441406 1.929688 16.433594 C 1.933594 16.308594 1.984375 15.265625 2.1875 14.332031 L 2.039062 14.300781 L 2.132812 14.417969 C 2.160156 14.398438 2.183594 14.382812 2.199219 14.375 C 2.214844 14.371094 2.21875 14.371094 2.222656 14.371094 C 2.222656 14.371094 2.222656 14.371094 2.238281 14.375 C 2.253906 14.386719 2.292969 14.421875 2.339844 14.476562 C 2.382812 14.535156 2.441406 14.609375 2.507812 14.703125 C 2.523438 14.722656 2.539062 14.753906 2.550781 14.792969 C 2.574219 14.855469 2.589844 14.9375 2.597656 15.03125 C 2.609375 15.125 2.613281 15.226562 2.613281 15.332031 C 2.613281 15.535156 2.597656 15.746094 2.582031 15.902344 C 2.574219 15.980469 2.566406 16.042969 2.558594 16.089844 C 2.558594 16.113281 2.554688 16.128906 2.554688 16.140625 L 2.550781 16.15625 L 2.550781 16.160156 L 2.699219 16.183594 L 2.660156 16.039062 L 2.699219 16.183594 L 2.847656 16.203125 C 2.847656 16.199219 2.914062 15.769531 2.914062 15.332031 C 2.914062 15.183594 2.90625 15.03125 2.882812 14.894531 C 2.871094 14.824219 2.855469 14.757812 2.835938 14.695312 C 2.816406 14.636719 2.789062 14.578125 2.75 14.527344 C 2.660156 14.402344 2.589844 14.304688 2.515625 14.222656 C 2.476562 14.183594 2.4375 14.148438 2.390625 14.117188 C 2.34375 14.089844 2.28125 14.070312 2.222656 14.070312 C 2.167969 14.070312 2.121094 14.082031 2.074219 14.101562 C 2.03125 14.125 1.988281 14.152344 1.945312 14.183594 C 1.917969 14.207031 1.898438 14.234375 1.894531 14.269531 C 1.671875 15.296875 1.628906 16.429688 1.628906 16.433594 C 1.628906 16.484375 1.648438 16.527344 1.6875 16.558594 C 1.722656 16.585938 1.773438 16.597656 1.820312 16.585938 L 2.738281 16.328125 C 2.796875 16.3125 2.839844 16.261719 2.847656 16.203125 L 2.699219 16.183594 " fill-opacity="1" fill-rule="nonzero"/><path fill="rgb(94.119263%, 27.059937%, 13.729858%)" d="M 27.976562 16.578125 C 27.976562 16.578125 26.441406 16.722656 26.203125 16.503906 C 25.964844 16.285156 25.425781 15.855469 25.453125 15.328125 C 25.691406 15.140625 26.804688 14.566406 27.132812 14.84375 C 27.554688 15.203125 27.976562 16.578125 27.976562 16.578125 " fill-opacity="1" fill-rule="nonzero"/><path fill="rgb(1.568604%, 1.959229%, 1.959229%)" d="M 27.976562 16.578125 L 27.964844 16.429688 C 27.964844 16.429688 27.957031 16.429688 27.941406 16.429688 C 27.84375 16.4375 27.414062 16.472656 27.007812 16.472656 C 26.832031 16.472656 26.660156 16.46875 26.527344 16.449219 C 26.460938 16.441406 26.40625 16.429688 26.363281 16.417969 C 26.34375 16.410156 26.328125 16.40625 26.316406 16.402344 L 26.304688 16.390625 C 26.242188 16.335938 26.167969 16.273438 26.089844 16.199219 C 25.972656 16.085938 25.847656 15.953125 25.753906 15.8125 C 25.660156 15.667969 25.601562 15.519531 25.601562 15.367188 C 25.601562 15.355469 25.601562 15.347656 25.601562 15.339844 L 25.453125 15.328125 L 25.546875 15.449219 C 25.582031 15.417969 25.664062 15.363281 25.765625 15.308594 C 25.917969 15.222656 26.121094 15.121094 26.328125 15.046875 C 26.429688 15.007812 26.527344 14.976562 26.625 14.953125 C 26.71875 14.933594 26.804688 14.917969 26.875 14.917969 C 26.917969 14.917969 26.953125 14.925781 26.980469 14.933594 C 27.007812 14.941406 27.023438 14.949219 27.035156 14.957031 C 27.117188 15.027344 27.21875 15.167969 27.3125 15.339844 C 27.453125 15.597656 27.585938 15.917969 27.679688 16.175781 C 27.726562 16.304688 27.765625 16.417969 27.792969 16.496094 C 27.804688 16.535156 27.816406 16.566406 27.824219 16.589844 C 27.828125 16.601562 27.828125 16.609375 27.832031 16.613281 L 27.832031 16.621094 L 27.976562 16.578125 L 27.964844 16.429688 L 27.976562 16.578125 L 28.121094 16.535156 C 28.121094 16.53125 28.011719 16.183594 27.851562 15.789062 C 27.769531 15.589844 27.675781 15.382812 27.574219 15.195312 C 27.46875 15.007812 27.359375 14.84375 27.230469 14.730469 C 27.179688 14.6875 27.121094 14.660156 27.058594 14.644531 C 27 14.625 26.9375 14.621094 26.875 14.621094 C 26.738281 14.621094 26.589844 14.648438 26.445312 14.691406 C 26.222656 14.757812 25.992188 14.855469 25.800781 14.949219 C 25.703125 15 25.613281 15.046875 25.539062 15.089844 C 25.464844 15.136719 25.402344 15.175781 25.359375 15.210938 C 25.324219 15.238281 25.304688 15.277344 25.300781 15.320312 C 25.300781 15.335938 25.300781 15.351562 25.300781 15.367188 C 25.300781 15.519531 25.339844 15.664062 25.398438 15.792969 C 25.488281 15.984375 25.621094 16.148438 25.753906 16.289062 C 25.886719 16.425781 26.019531 16.535156 26.101562 16.613281 C 26.15625 16.664062 26.214844 16.683594 26.277344 16.707031 C 26.375 16.734375 26.484375 16.75 26.609375 16.761719 C 26.734375 16.769531 26.871094 16.773438 27.007812 16.773438 C 27.488281 16.773438 27.988281 16.726562 27.992188 16.726562 C 28.035156 16.722656 28.078125 16.699219 28.101562 16.660156 C 28.125 16.625 28.132812 16.578125 28.121094 16.535156 L 27.976562 16.578125 " fill-opacity="1" fill-rule="nonzero"/><path fill="rgb(98.039246%, 72.938538%, 3.529358%)" d="M 26.714844 15.691406 C 26.714844 15.941406 26.515625 16.140625 26.265625 16.140625 C 26.019531 16.140625 25.820312 15.941406 25.820312 15.691406 C 25.820312 15.445312 26.019531 15.246094 26.265625 15.246094 C 26.515625 15.246094 26.714844 15.445312 26.714844 15.691406 " fill-opacity="1" fill-rule="nonzero"/><path fill="rgb(1.568604%, 1.959229%, 1.959229%)" d="M 26.714844 15.691406 L 26.5625 15.691406 C 26.5625 15.773438 26.53125 15.847656 26.476562 15.902344 C 26.421875 15.957031 26.351562 15.988281 26.265625 15.988281 C 26.183594 15.988281 26.113281 15.957031 26.058594 15.902344 C 26.003906 15.847656 25.96875 15.773438 25.96875 15.691406 C 25.96875 15.609375 26.003906 15.535156 26.058594 15.484375 C 26.113281 15.429688 26.183594 15.394531 26.265625 15.394531 C 26.351562 15.394531 26.421875 15.429688 26.476562 15.484375 C 26.53125 15.535156 26.5625 15.609375 26.5625 15.691406 L 26.863281 15.691406 C 26.863281 15.363281 26.597656 15.09375 26.265625 15.09375 C 25.9375 15.09375 25.671875 15.363281 25.671875 15.691406 C 25.671875 16.023438 25.9375 16.289062 26.265625 16.289062 C 26.597656 16.289062 26.863281 16.023438 26.863281 15.691406 L 26.714844 15.691406 " fill-opacity="1" fill-rule="nonzero"/><g clip-path="url(#clip-0)"><g clip-path="url(#clip-1)"><path fill="url(#radial-pattern-0)" d="M 7.960938 7.476562 L 7.960938 21.265625 L 21.746094 21.265625 L 21.746094 7.476562 Z M 7.960938 7.476562 " fill-rule="nonzero"/></g></g><path fill="rgb(100%, 100%, 100%)" d="M 18.261719 11.210938 C 17.894531 10.8125 17.5625 10.542969 17.164062 10.910156 L 11.214844 16.394531 C 10.816406 16.761719 11.066406 17.113281 11.433594 17.511719 C 11.800781 17.910156 12.144531 18.203125 12.542969 17.835938 L 18.492188 12.351562 C 18.890625 11.988281 18.628906 11.609375 18.261719 11.210938 Z M 18.261719 11.210938 " fill-opacity="1" fill-rule="nonzero"/><path fill="rgb(100%, 100%, 100%)" d="M 11.441406 11.210938 C 11.808594 10.8125 12.140625 10.542969 12.539062 10.910156 L 18.488281 16.394531 C 18.886719 16.761719 18.636719 17.113281 18.273438 17.511719 C 17.90625 17.910156 17.558594 18.203125 17.160156 17.835938 L 11.210938 12.351562 C 10.8125 11.988281 11.074219 11.609375 11.441406 11.210938 Z M 11.441406 11.210938 " fill-opacity="1" fill-rule="nonzero"/></svg>