<?xml version="1.0" encoding="UTF-8"?><svg xmlns="http://www.w3.org/2000/svg" xmlns:xlink="http://www.w3.org/1999/xlink" width="30" zoomAndPan="magnify" viewBox="0 0 30 30.000001" height="30.000001" preserveAspectRatio="xMidYMid meet" version="1.0"><defs><clipPath id="clip-0"><path d="M 6.214844 0 L 23.628906 0 L 23.628906 28.304688 L 6.214844 28.304688 Z M 6.214844 0 " clip-rule="nonzero"/></clipPath></defs><g clip-path="url(#clip-0)"><path fill="rgb(0%, 29.019165%, 67.83905%)" d="M 20.972656 19.925781 C 20.128906 19.476562 19.144531 19.132812 18.070312 18.902344 L 18.070312 16.589844 C 18.210938 16.679688 18.375 16.734375 18.550781 16.734375 C 19.035156 16.734375 19.429688 16.339844 19.429688 15.855469 L 19.429688 15.144531 C 19.488281 15.019531 19.523438 14.875 19.523438 14.726562 L 19.523438 8.238281 C 19.523438 7.761719 19.183594 7.351562 18.714844 7.257812 L 16.917969 6.898438 C 16.828125 6.792969 16.714844 6.710938 16.589844 6.652344 C 16.734375 6.492188 16.851562 6.332031 16.945312 6.203125 C 17.164062 5.882812 17.347656 5.539062 17.472656 5.207031 C 17.535156 5.070312 17.589844 4.929688 17.632812 4.789062 C 17.800781 4.648438 17.902344 4.433594 17.902344 4.210938 L 17.902344 3.664062 C 17.902344 3.503906 17.851562 3.351562 17.761719 3.222656 L 17.761719 2.453125 C 17.761719 1.097656 16.660156 -0.00390625 15.304688 -0.00390625 L 14.507812 -0.00390625 C 13.152344 -0.00390625 12.050781 1.097656 12.050781 2.453125 L 12.050781 3.222656 C 11.960938 3.351562 11.910156 3.503906 11.910156 3.664062 L 11.910156 4.210938 C 11.910156 4.433594 12.011719 4.648438 12.179688 4.789062 C 12.222656 4.929688 12.277344 5.066406 12.339844 5.207031 C 12.46875 5.539062 12.648438 5.882812 12.871094 6.203125 C 12.960938 6.332031 13.082031 6.492188 13.222656 6.652344 C 13.097656 6.710938 12.988281 6.792969 12.898438 6.898438 L 11.128906 7.253906 C 10.660156 7.351562 10.324219 7.761719 10.324219 8.238281 L 10.324219 14.726562 C 10.324219 14.875 10.355469 15.019531 10.414062 15.144531 L 10.414062 15.855469 C 10.414062 16.339844 10.808594 16.734375 11.292969 16.734375 C 11.46875 16.734375 11.636719 16.679688 11.773438 16.589844 L 11.773438 18.90625 C 10.699219 19.132812 9.714844 19.476562 8.871094 19.925781 C 7.15625 20.839844 6.214844 22.089844 6.214844 23.445312 C 6.214844 24.796875 7.15625 26.046875 8.871094 26.960938 C 10.496094 27.828125 12.644531 28.304688 14.921875 28.304688 C 17.199219 28.304688 19.347656 27.828125 20.972656 26.960938 C 22.6875 26.046875 23.628906 24.796875 23.628906 23.445312 C 23.628906 22.089844 22.6875 20.839844 20.972656 19.925781 Z M 15.292969 8.0625 C 15.289062 8.019531 15.300781 7.976562 15.332031 7.941406 C 15.347656 7.921875 15.367188 7.910156 15.390625 7.898438 L 15.390625 7.507812 C 15.390625 7.433594 15.445312 7.367188 15.519531 7.351562 C 15.644531 7.332031 15.773438 7.285156 15.902344 7.21875 C 15.953125 7.191406 16.011719 7.191406 16.058594 7.222656 C 16.105469 7.25 16.132812 7.300781 16.132812 7.355469 L 16.132812 8.296875 C 16.132812 8.332031 16.125 8.363281 16.101562 8.390625 L 15.660156 8.976562 C 15.628906 9.019531 15.582031 9.039062 15.535156 9.039062 C 15.519531 9.039062 15.507812 9.039062 15.492188 9.035156 C 15.429688 9.019531 15.382812 8.964844 15.378906 8.898438 Z M 12.984375 4.410156 L 12.976562 4.34375 L 12.824219 4.242188 C 12.78125 4.214844 12.753906 4.164062 12.753906 4.113281 L 12.753906 3.851562 C 12.753906 3.765625 12.824219 3.695312 12.910156 3.695312 L 12.972656 3.695312 L 12.972656 3.414062 C 12.972656 3.355469 13.007812 3.300781 13.0625 3.273438 C 13.277344 3.164062 13.707031 2.984375 14.152344 2.984375 C 14.507812 2.984375 14.804688 3.101562 15.03125 3.335938 C 15.3125 3.625 15.636719 3.773438 15.992188 3.773438 C 16.195312 3.773438 16.40625 3.726562 16.617188 3.632812 C 16.664062 3.609375 16.722656 3.613281 16.765625 3.644531 C 16.789062 3.65625 16.804688 3.675781 16.816406 3.695312 L 16.902344 3.695312 C 16.992188 3.695312 17.0625 3.765625 17.0625 3.851562 L 17.0625 4.113281 C 17.0625 4.164062 17.035156 4.214844 16.988281 4.242188 L 16.835938 4.34375 L 16.828125 4.410156 C 16.777344 4.785156 16.566406 5.273438 16.261719 5.710938 C 15.878906 6.269531 15.515625 6.519531 15.328125 6.519531 L 14.484375 6.519531 C 14.296875 6.519531 13.9375 6.269531 13.550781 5.710938 C 13.246094 5.273438 13.035156 4.785156 12.984375 4.410156 Z M 14.480469 7.941406 C 14.511719 7.976562 14.527344 8.019531 14.519531 8.0625 L 14.433594 8.898438 C 14.429688 8.964844 14.382812 9.019531 14.320312 9.035156 C 14.308594 9.039062 14.292969 9.039062 14.277344 9.039062 C 14.230469 9.039062 14.183594 9.019531 14.152344 8.976562 L 13.710938 8.390625 C 13.691406 8.363281 13.679688 8.332031 13.679688 8.296875 L 13.679688 7.355469 C 13.679688 7.300781 13.707031 7.25 13.753906 7.222656 C 13.800781 7.191406 13.859375 7.191406 13.910156 7.214844 C 14.039062 7.285156 14.167969 7.332031 14.292969 7.351562 C 14.367188 7.367188 14.421875 7.433594 14.421875 7.507812 L 14.421875 7.898438 C 14.445312 7.910156 14.464844 7.921875 14.480469 7.941406 Z M 14.921875 26.285156 C 11.214844 26.285156 8.078125 24.714844 8.078125 22.863281 C 8.078125 21.570312 9.597656 20.417969 11.773438 19.835938 L 11.773438 23.304688 C 11.773438 24.175781 12.476562 24.878906 13.347656 24.878906 C 14.21875 24.878906 14.921875 24.175781 14.921875 23.304688 C 14.921875 24.175781 15.628906 24.878906 16.496094 24.878906 C 17.367188 24.878906 18.070312 24.175781 18.070312 23.304688 L 18.070312 19.835938 C 20.246094 20.417969 21.765625 21.570312 21.765625 22.863281 C 21.765625 24.714844 18.632812 26.285156 14.921875 26.285156 Z M 14.921875 26.285156 " fill-opacity="1" fill-rule="nonzero"/></g></svg>